<svg width="48" height="48" viewBox="0 0 48 48" fill="none" xmlns="http://www.w3.org/2000/svg">
<g id="PhoneCall">
<path id="Vector" d="M28.5506 7.11186C28.6016 6.9215 28.6895 6.74303 28.8094 6.58666C28.9293 6.43029 29.0789 6.29907 29.2495 6.20052C29.4201 6.10196 29.6085 6.038 29.8039 6.01228C29.9993 5.98656 30.1978 5.99958 30.3881 6.05061C33.1689 6.77614 35.706 8.22982 37.7381 10.2619C39.7702 12.294 41.2239 14.8311 41.9494 17.6119C42.0004 17.8022 42.0134 18.0007 41.9877 18.1961C41.962 18.3915 41.898 18.5799 41.7995 18.7505C41.7009 18.9211 41.5697 19.0707 41.4133 19.1906C41.257 19.3105 41.0785 19.3984 40.8881 19.4494C40.7614 19.4826 40.631 19.4997 40.5 19.5C40.1695 19.5 39.8482 19.3908 39.5861 19.1894C39.324 18.988 39.1358 18.7056 39.0506 18.3862C38.4589 16.1162 37.2725 14.0451 35.6137 12.3863C33.9549 10.7275 31.8838 9.54109 29.6138 8.94936C29.4232 8.89865 29.2446 8.81086 29.088 8.69103C28.9314 8.57121 28.8 8.42168 28.7013 8.25102C28.6025 8.08036 28.5384 7.8919 28.5125 7.69644C28.4867 7.50097 28.4996 7.30232 28.5506 7.11186ZM28.1138 14.9494C30.6994 15.6394 32.3606 17.3006 33.0506 19.8862C33.1358 20.2056 33.324 20.488 33.5861 20.6894C33.8482 20.8908 34.1695 21 34.5 21C34.631 20.9997 34.7614 20.9826 34.8881 20.9494C35.0785 20.8984 35.257 20.8105 35.4133 20.6906C35.5697 20.5707 35.7009 20.4211 35.7995 20.2505C35.898 20.0799 35.962 19.8915 35.9877 19.6961C36.0134 19.5007 36.0004 19.3022 35.9494 19.1119C34.9894 15.5194 32.4806 13.0106 28.8881 12.0506C28.6978 11.9998 28.4993 11.9869 28.304 12.0128C28.1087 12.0386 27.9204 12.1027 27.7499 12.2013C27.5793 12.3 27.4299 12.4312 27.3101 12.5876C27.1903 12.744 27.1024 12.9225 27.0516 13.1128C27.0007 13.3031 26.9879 13.5016 27.0137 13.6969C27.0396 13.8922 27.1037 14.0805 27.2023 14.2511C27.3009 14.4216 27.4322 14.5711 27.5886 14.6909C27.745 14.8107 27.9234 14.8985 28.1138 14.9494ZM43.4775 32.8275C43.1432 35.3682 41.8955 37.7003 39.9673 39.3882C38.0392 41.0762 35.5626 42.0046 33 42C18.1125 42 6.00002 29.8875 6.00002 15C5.99542 12.4374 6.92381 9.96078 8.61177 8.03267C10.2997 6.10455 12.6318 4.85681 15.1725 4.52249C15.815 4.44404 16.4656 4.57548 17.0272 4.89718C17.5889 5.21889 18.0314 5.71361 18.2888 6.30749L22.2488 15.1481V15.1706C22.4458 15.6252 22.5272 16.1215 22.4856 16.6153C22.4441 17.109 22.2809 17.5847 22.0106 18C21.9769 18.0506 21.9413 18.0975 21.9038 18.1444L18 22.7719C19.4044 25.6256 22.3894 28.5844 25.2806 29.9925L29.8444 26.1094C29.8892 26.0717 29.9362 26.0366 29.985 26.0044C30.3999 25.7276 30.8773 25.5587 31.374 25.5129C31.8706 25.467 32.3708 25.5457 32.8294 25.7419L32.8538 25.7531L41.6869 29.7112C42.2818 29.9677 42.7777 30.4098 43.1005 30.9715C43.4233 31.5333 43.5555 32.1844 43.4775 32.8275ZM40.5 32.4525C40.5 32.4525 40.4869 32.4525 40.4794 32.4525L31.6669 28.5056L27.1013 32.3887C27.057 32.4263 27.0107 32.4613 26.9625 32.4937C26.5308 32.7817 26.0318 32.9528 25.5142 32.9903C24.9966 33.0278 24.4781 32.9303 24.0094 32.7075C20.4975 31.0106 16.9969 27.5362 15.2981 24.0619C15.0732 23.5966 14.9723 23.0811 15.0051 22.5654C15.038 22.0496 15.2035 21.5511 15.4856 21.1181C15.5174 21.0673 15.5532 21.019 15.5925 20.9737L19.5 16.3406L15.5625 7.52811C15.5618 7.52063 15.5618 7.51309 15.5625 7.50561C13.7442 7.7428 12.0748 8.63467 10.8668 10.0142C9.65879 11.3937 8.9951 13.1663 9.00002 15C9.00696 21.363 11.5378 27.4635 16.0371 31.9629C20.5365 36.4622 26.637 38.993 33 39C34.8326 39.0063 36.6047 38.3449 37.985 37.1395C39.3653 35.9342 40.2594 34.2673 40.5 32.4506V32.4525Z" fill="#E095AD"/>
</g>
</svg>
