<svg width="48" height="48" viewBox="0 0 48 48" fill="none" xmlns="http://www.w3.org/2000/svg">
<g id="WhatsappLogo">
<path id="Vector" d="M35.1712 27.1575L29.1712 24.1575C28.9351 24.0398 28.672 23.9865 28.4086 24.003C28.1453 24.0194 27.8909 24.1051 27.6712 24.2512L24.9169 26.0887C23.6525 25.3937 22.6119 24.3532 21.9169 23.0887L23.7544 20.3344C23.9005 20.1147 23.9862 19.8603 24.0026 19.597C24.0191 19.3336 23.9658 19.0706 23.8481 18.8344L20.8481 12.8344C20.7238 12.5833 20.5316 12.372 20.2933 12.2245C20.055 12.0771 19.7802 11.9993 19.5 12C17.5109 12 15.6032 12.7902 14.1967 14.1967C12.7902 15.6032 12 17.5109 12 19.5C12.0049 23.8745 13.7449 28.0685 16.8382 31.1618C19.9315 34.2551 24.1254 35.995 28.5 36C29.4849 36 30.4602 35.806 31.3701 35.4291C32.2801 35.0522 33.1068 34.4997 33.8033 33.8033C34.4997 33.1069 35.0522 32.2801 35.4291 31.3701C35.806 30.4602 36 29.4849 36 28.5C36.0002 28.2213 35.9228 27.9481 35.7764 27.711C35.63 27.4739 35.4204 27.2822 35.1712 27.1575ZM28.5 33C24.9208 32.996 21.4893 31.5724 18.9584 29.0416C16.4275 26.5107 15.004 23.0792 15 19.5C14.9997 18.4596 15.3599 17.4512 16.0194 16.6465C16.6788 15.8418 17.5967 15.2904 18.6169 15.0863L20.7694 19.3988L18.9375 22.125C18.8006 22.3303 18.7165 22.5663 18.6926 22.8119C18.6687 23.0575 18.7058 23.3053 18.8006 23.5331C19.8738 26.0838 21.903 28.113 24.4537 29.1863C24.6823 29.2852 24.9319 29.3258 25.18 29.3042C25.4281 29.2826 25.667 29.1995 25.875 29.0625L28.6144 27.2362L32.9269 29.3888C32.7211 30.4101 32.1673 31.3284 31.36 31.987C30.5527 32.6456 29.5418 33.0036 28.5 33ZM24 4.5C20.6334 4.49927 17.3239 5.37017 14.3937 7.02793C11.4635 8.68569 9.01245 11.0738 7.27906 13.9599C5.54567 16.846 4.58901 20.1317 4.50221 23.4972C4.41541 26.8627 5.20142 30.1934 6.78373 33.165L4.65561 39.5494C4.47933 40.078 4.45375 40.6452 4.58173 41.1875C4.70971 41.7298 4.9862 42.2258 5.38021 42.6198C5.77421 43.0138 6.27016 43.2903 6.81247 43.4183C7.35478 43.5462 7.92202 43.5207 8.45061 43.3444L14.835 41.2163C17.4502 42.6072 20.3479 43.3841 23.3082 43.488C26.2684 43.5919 29.2135 43.02 31.9197 41.8157C34.626 40.6115 37.0223 38.8065 38.9269 36.5379C40.8314 34.2693 42.1941 31.5965 42.9115 28.7226C43.6288 25.8487 43.6821 22.8491 43.0671 19.9516C42.4521 17.054 41.1851 14.3346 39.3623 11.9998C37.5394 9.66506 35.2086 7.77623 32.5468 6.47673C29.885 5.17723 26.9621 4.50122 24 4.5ZM24 40.5C21.0993 40.502 18.2495 39.7381 15.7387 38.2856C15.5549 38.179 15.3505 38.1127 15.1391 38.091C14.9277 38.0694 14.7141 38.0929 14.5125 38.16L7.49998 40.5L9.83811 33.4875C9.90551 33.286 9.92933 33.0725 9.90799 32.8611C9.88666 32.6497 9.82066 32.4452 9.71436 32.2612C7.89556 29.1167 7.16531 25.4598 7.63691 21.8579C8.10851 18.256 9.7556 14.9104 12.3226 12.3401C14.8897 9.76981 18.2332 8.11851 21.8345 7.64236C25.4359 7.1662 29.0936 7.89183 32.2405 9.70666C35.3873 11.5215 37.8473 14.3241 39.2388 17.6797C40.6303 21.0352 40.8755 24.7562 39.9364 28.2654C38.9973 31.7746 36.9265 34.8758 34.045 37.0879C31.1636 39.3 27.6326 40.4994 24 40.5Z" fill="#E095AD"/>
</g>
</svg>
