<svg width="32" height="32" viewBox="0 0 32 32" fill="none" xmlns="http://www.w3.org/2000/svg">
<g id="Link">
<path id="Vector" d="M17.1925 23.2949C17.3799 23.4825 17.4851 23.7367 17.4851 24.0018C17.4851 24.2669 17.3799 24.5212 17.1925 24.7087L15.95 25.9587C14.636 27.2718 12.8542 28.0092 10.9965 28.0086C9.13884 28.0081 7.3575 27.2695 6.04434 25.9556C4.73119 24.6416 3.9938 22.8598 3.99439 21.0021C3.99497 19.1444 4.73349 17.3631 6.04747 16.0499L9.06247 13.0349C10.3246 11.7718 12.0217 11.0388 13.8065 10.9858C15.5913 10.9328 17.3289 11.5639 18.6637 12.7499C18.7622 12.8373 18.8425 12.9431 18.9001 13.0615C18.9577 13.1799 18.9914 13.3084 18.9993 13.4398C19.0072 13.5712 18.9891 13.7029 18.9461 13.8273C18.9031 13.9517 18.836 14.0664 18.7487 14.1649C18.6614 14.2634 18.5555 14.3438 18.4371 14.4013C18.3188 14.4589 18.1902 14.4926 18.0588 14.5005C17.9274 14.5084 17.7958 14.4903 17.6714 14.4473C17.5469 14.4043 17.4322 14.3373 17.3337 14.2499C16.3804 13.4033 15.1396 12.9529 13.8651 12.9908C12.5907 13.0286 11.3789 13.5519 10.4775 14.4537L7.46247 17.4649C6.5246 18.4028 5.99771 19.6748 5.99771 21.0012C5.99771 22.3275 6.5246 23.5996 7.46247 24.5374C8.40034 25.4753 9.67237 26.0022 10.9987 26.0022C12.3251 26.0022 13.5971 25.4753 14.535 24.5374L15.7775 23.2949C15.8703 23.202 15.9806 23.1282 16.102 23.0779C16.2234 23.0275 16.3536 23.0016 16.485 23.0016C16.6164 23.0016 16.7465 23.0275 16.8679 23.0779C16.9893 23.1282 17.0996 23.202 17.1925 23.2949ZM25.9525 6.04493C24.6383 4.73371 22.8577 3.99731 21.0012 3.99731C19.1448 3.99731 17.3641 4.73371 16.05 6.04493L14.8075 7.28868C14.62 7.47632 14.5147 7.73075 14.5149 7.996C14.515 8.26125 14.6205 8.51558 14.8081 8.70306C14.9957 8.89053 15.2502 8.99579 15.5154 8.99567C15.7807 8.99556 16.035 8.89007 16.2225 8.70243L17.465 7.45993C18.4028 6.52206 19.6749 5.99517 21.0012 5.99517C22.3276 5.99517 23.5996 6.52206 24.5375 7.45993C25.4753 8.39781 26.0022 9.66983 26.0022 10.9962C26.0022 12.3225 25.4753 13.5946 24.5375 14.5324L21.5225 17.5499C20.6206 18.4511 19.4085 18.9738 18.134 19.011C16.8596 19.0481 15.6191 18.597 14.6662 17.7499C14.5677 17.6626 14.453 17.5955 14.3286 17.5525C14.2042 17.5095 14.0725 17.4915 13.9411 17.4994C13.6758 17.5153 13.4276 17.636 13.2512 17.8349C13.1639 17.9334 13.0968 18.0482 13.0538 18.1726C13.0108 18.297 12.9928 18.4286 13.0007 18.56C13.0166 18.8254 13.1373 19.0736 13.3362 19.2499C14.6707 20.4363 16.4081 21.0678 18.1929 21.0153C19.9778 20.9628 21.675 20.2302 22.9375 18.9674L25.9525 15.9524C27.2645 14.6382 28.0013 12.857 28.0013 10.9999C28.0013 9.14288 27.2645 7.36171 25.9525 6.04743V6.04493Z" fill="#FEF2F1"/>
</g>
</svg>
